<?xml version="1.0" encoding="UTF-8"?>
<svg xmlns="http://www.w3.org/2000/svg" width="1100" height="300" viewBox="0 0 1100 300" role="img" aria-label="ohmy-seo architecture">
  <rect width="1100" height="300" rx="14" fill="#0b1220"/>
  <rect x="0.75" y="0.75" width="1098.5" height="298.5" rx="13.25" fill="none" stroke="#1e293b"/>
  <text x="28" y="40" font-family="ui-sans-serif, system-ui, sans-serif" font-size="24" font-weight="700" fill="#f8fafc">ohmy-seo</text>
  <text x="160" y="40" font-family="ui-sans-serif, system-ui, sans-serif" font-size="14" fill="#94a3b8">MCP-инструментарий: Яндекс · Google · SERP</text>
  <rect x="430" y="54" width="240" height="32" rx="16" fill="#1e293b" stroke="#38bdf8"/>
  <text x="550" y="74" text-anchor="middle" font-family="ui-sans-serif, system-ui, sans-serif" font-size="13" font-weight="600" fill="#e0f2fe">LLM-агент (Claude / MCP-клиент)</text>
  <line x1="40" y1="96" x2="1060" y2="96" stroke="#334155" stroke-width="1.25"/><line x1="133" y1="96" x2="133" y2="108" stroke="#334155" stroke-width="1.25"/>
        <rect x="28" y="108" width="210" height="100" rx="12" fill="#0f172a" stroke="#FC3F1D" stroke-width="1.6"/>
        <circle cx="44" cy="128" r="4.5" fill="#FC3F1D"/>
        <text x="56" y="132" font-family="ui-monospace, SFMono-Regular, Menlo, Consolas, monospace" font-size="12.5" font-weight="600" fill="#f8fafc">mcp-yandex-seo</text>
        <text x="44" y="162" font-family="ui-sans-serif, system-ui, sans-serif" font-size="12" fill="#cbd5e1">Директ ЕПК · Метрика</text>
        <text x="44" y="184" font-family="ui-sans-serif, system-ui, sans-serif" font-size="12" fill="#64748b">Вебмастер · 46 tools</text>
        <line x1="334" y1="96" x2="334" y2="108" stroke="#334155" stroke-width="1.25"/>
        <rect x="254" y="108" width="160" height="100" rx="12" fill="#0f172a" stroke="#10B981" stroke-width="1.6"/>
        <circle cx="270" cy="128" r="4.5" fill="#10B981"/>
        <text x="282" y="132" font-family="ui-monospace, SFMono-Regular, Menlo, Consolas, monospace" font-size="12.5" font-weight="600" fill="#f8fafc">mcp-mutagen</text>
        <text x="270" y="162" font-family="ui-sans-serif, system-ui, sans-serif" font-size="12" fill="#cbd5e1">конкуренция ключей</text>
        <text x="270" y="184" font-family="ui-sans-serif, system-ui, sans-serif" font-size="12" fill="#64748b">5 tools</text>
        <line x1="510" y1="96" x2="510" y2="108" stroke="#334155" stroke-width="1.25"/>
        <rect x="430" y="108" width="160" height="100" rx="12" fill="#0f172a" stroke="#8B5CF6" stroke-width="1.6"/>
        <circle cx="446" cy="128" r="4.5" fill="#8B5CF6"/>
        <text x="458" y="132" font-family="ui-monospace, SFMono-Regular, Menlo, Consolas, monospace" font-size="12.5" font-weight="600" fill="#f8fafc">mcp-xmlstock</text>
        <text x="446" y="162" font-family="ui-sans-serif, system-ui, sans-serif" font-size="12" fill="#cbd5e1">Яндекс/Google SERP</text>
        <text x="446" y="184" font-family="ui-sans-serif, system-ui, sans-serif" font-size="12" fill="#64748b">5 tools</text>
        <line x1="681" y1="96" x2="681" y2="108" stroke="#334155" stroke-width="1.25"/>
        <rect x="606" y="108" width="150" height="100" rx="12" fill="#0f172a" stroke="#34A853" stroke-width="1.6"/>
        <circle cx="622" cy="128" r="4.5" fill="#34A853"/>
        <text x="634" y="132" font-family="ui-monospace, SFMono-Regular, Menlo, Consolas, monospace" font-size="12.5" font-weight="600" fill="#f8fafc">mcp-gsc</text>
        <text x="622" y="162" font-family="ui-sans-serif, system-ui, sans-serif" font-size="12" fill="#cbd5e1">Search Console</text>
        <text x="622" y="184" font-family="ui-sans-serif, system-ui, sans-serif" font-size="12" fill="#64748b">Indexing API</text>
        <line x1="842" y1="96" x2="842" y2="108" stroke="#334155" stroke-width="1.25"/>
        <rect x="772" y="108" width="140" height="100" rx="12" fill="#0f172a" stroke="#EA4335" stroke-width="1.6"/>
        <circle cx="788" cy="128" r="4.5" fill="#EA4335"/>
        <text x="800" y="132" font-family="ui-monospace, SFMono-Regular, Menlo, Consolas, monospace" font-size="12.5" font-weight="600" fill="#f8fafc">mcp-ga4</text>
        <text x="788" y="162" font-family="ui-sans-serif, system-ui, sans-serif" font-size="12" fill="#cbd5e1">Analytics 4</text>
        <text x="788" y="184" font-family="ui-sans-serif, system-ui, sans-serif" font-size="12" fill="#64748b">Data + Admin</text>
        <line x1="1002" y1="96" x2="1002" y2="108" stroke="#334155" stroke-width="1.25"/>
        <rect x="928" y="108" width="148" height="100" rx="12" fill="#0f172a" stroke="#4285F4" stroke-width="1.6"/>
        <circle cx="944" cy="128" r="4.5" fill="#4285F4"/>
        <text x="956" y="132" font-family="ui-monospace, SFMono-Regular, Menlo, Consolas, monospace" font-size="12.5" font-weight="600" fill="#f8fafc">mcp-gtm</text>
        <text x="944" y="162" font-family="ui-sans-serif, system-ui, sans-serif" font-size="12" fill="#cbd5e1">Tag Manager</text>
        <text x="944" y="184" font-family="ui-sans-serif, system-ui, sans-serif" font-size="12" fill="#64748b">publish/rollback</text>
        
  <text x="28" y="278" font-family="ui-sans-serif, system-ui, sans-serif" font-size="11.5" fill="#64748b">stdio · OAuth · AES-256-GCM · live-mutation gates · MIT © Кирилл Вечкасов (VKirill)</text>
</svg>